<svg width="26" height="27" viewBox="0 0 26 27" fill="none" xmlns="http://www.w3.org/2000/svg">
<path d="M13 1.6875C6.71775 1.6875 1.625 6.97613 1.625 13.5C1.625 20.0239 6.71775 25.3125 13 25.3125C19.2823 25.3125 24.375 20.0239 24.375 13.5C24.375 6.97613 19.2823 1.6875 13 1.6875Z" fill="#863ED5"/>
<path d="M12.6587 13.7021C12.549 13.5913 12.549 13.4087 12.6587 13.2979C13.2101 12.7409 14.8161 11.1119 16.426 9.4185C16.7898 9.03578 16.9306 8.49167 16.6225 8.06305C16.4964 7.8876 16.3286 7.68881 16.106 7.47546C15.8028 7.18504 15.5143 6.99081 15.2738 6.86166C14.8799 6.65021 14.4188 6.75805 14.0612 7.02613C11.2619 9.12426 9.35284 11.3895 8.42957 12.6058C8.02348 13.1408 8.02348 13.8592 8.42957 14.3942C9.35284 15.6105 11.2619 17.8757 14.0612 19.9739C14.4188 20.242 14.8799 20.3498 15.2738 20.1383C15.5143 20.0092 15.8028 19.815 16.106 19.5245C16.3286 19.3112 16.4964 19.1124 16.6225 18.937C16.9306 18.5083 16.7898 17.9642 16.426 17.5816C14.8161 15.8881 13.2101 14.2592 12.6587 13.7021Z" fill="white"/>
</svg>
