<svg width="76" height="76" viewBox="0 0 76 76" fill="none" xmlns="http://www.w3.org/2000/svg">
<g filter="url(#filter0_d_2001_374)">
<circle cx="33" cy="32" r="20" fill="white"/>
</g>
<path d="M41.4502 34.4804C41.8457 34.4804 42.1663 34.1598 42.1663 33.7643V29.1093C42.1663 27.5298 40.8813 26.2448 39.3018 26.2448H38.2146C37.9079 26.2448 37.6355 26.0497 37.5366 25.7593L37.32 25.1228C37.0235 24.2518 36.2061 23.6666 35.2861 23.6666H30.711C29.8088 23.6666 28.9967 24.2368 28.6903 25.0853L28.4424 25.7718C28.3403 26.0547 28.0696 26.2448 27.7688 26.2448H26.6976C25.1181 26.2448 23.833 27.5298 23.833 29.1093V37.345C23.833 38.9245 25.1181 40.2096 26.6976 40.2096H39.3018C40.8813 40.2096 42.1663 38.9245 42.1663 37.345C42.1663 36.9495 41.8457 36.6289 41.4502 36.6289C41.0547 36.6289 40.734 36.9495 40.734 37.345C40.734 38.1348 40.0915 38.7773 39.3018 38.7773H26.6976C25.9078 38.7773 25.2653 38.1348 25.2653 37.345V29.1093C25.2653 28.3196 25.9078 27.677 26.6976 27.677H27.7688C28.671 27.677 29.4831 27.1069 29.7895 26.2583L30.0374 25.5718C30.1396 25.289 30.4102 25.0989 30.711 25.0989H35.2861C35.5928 25.0989 35.8652 25.294 35.9641 25.5843L36.1808 26.2209C36.4772 27.0918 37.2945 27.677 38.2146 27.677H39.3018C40.0915 27.677 40.734 28.3196 40.734 29.1093V33.7643C40.734 34.1598 41.0547 34.4804 41.4502 34.4804Z" fill="#863ED5"/>
<path fill-rule="evenodd" clip-rule="evenodd" d="M28.5596 32.8691C28.5596 30.4011 30.5675 28.3932 33.0355 28.3932C35.5035 28.3932 37.5114 30.4011 37.5114 32.8691C37.5114 35.3371 35.5035 37.345 33.0355 37.345C30.5675 37.345 28.5596 35.3371 28.5596 32.8691ZM29.9919 32.8691C29.9919 34.5474 31.3572 35.9127 33.0355 35.9127C34.7137 35.9127 36.0791 34.5474 36.0791 32.8691C36.0791 31.1908 34.7137 29.8255 33.0355 29.8255C31.3572 29.8255 29.9919 31.1908 29.9919 32.8691Z" fill="#863ED5"/>
<defs>
<filter id="filter0_d_2001_374" x="0" y="0" width="76" height="76" filterUnits="userSpaceOnUse" color-interpolation-filters="sRGB">
<feFlood flood-opacity="0" result="BackgroundImageFix"/>
<feColorMatrix in="SourceAlpha" type="matrix" values="0 0 0 0 0 0 0 0 0 0 0 0 0 0 0 0 0 0 127 0" result="hardAlpha"/>
<feOffset dx="5" dy="6"/>
<feGaussianBlur stdDeviation="9"/>
<feColorMatrix type="matrix" values="0 0 0 0 0 0 0 0 0 0 0 0 0 0 0 0 0 0 0.08 0"/>
<feBlend mode="normal" in2="BackgroundImageFix" result="effect1_dropShadow_2001_374"/>
<feBlend mode="normal" in="SourceGraphic" in2="effect1_dropShadow_2001_374" result="shape"/>
</filter>
</defs>
</svg>
