<svg width="131" height="131" viewBox="0 0 131 131" fill="none" xmlns="http://www.w3.org/2000/svg">
<circle cx="65.5" cy="65.5" r="58.5" fill="white" stroke="#863ED5" stroke-width="14"/>
<path fill-rule="evenodd" clip-rule="evenodd" d="M43.5072 48.7678C44.1085 38.7354 52.5743 30.9019 62.8148 30.9019H67.9378C78.1783 30.9019 86.6441 38.7354 87.2454 48.7678L88.2248 65.1077C88.3959 67.9616 86.1771 70.4113 83.2689 70.5792C80.3607 70.7471 77.8645 68.5697 77.6934 65.7158L76.7139 49.3757C76.4406 44.8156 72.5925 41.2549 67.9378 41.2549H62.8148C58.1602 41.2549 54.312 44.8156 54.0387 49.3757L53.0592 65.7158C52.8881 68.5697 50.3919 70.7471 47.4837 70.5792C44.5755 70.4113 42.3567 67.9616 42.5278 65.1077L43.5072 48.7678Z" fill="#863ED5"/>
<path d="M34.3597 64.8781C34.7036 61.8905 36.9408 59.815 39.9859 59.4841C44.2656 59.0189 52.0043 58.5097 65.3766 58.5097C79.1179 58.5097 86.8321 59.0474 90.9662 59.5224C93.7452 59.8418 95.83 61.69 96.2228 64.4085C96.6354 67.2652 97.0256 71.9004 97.0256 79.2156C97.0256 86.5308 96.6354 91.166 96.2228 94.0227C95.83 96.7412 93.7452 98.5894 90.9662 98.9088C86.8321 99.3838 79.1179 99.9215 65.3766 99.9215C51.6353 99.9215 43.921 99.3838 39.7869 98.9088C37.008 98.5894 34.9232 96.7412 34.5304 94.0227C34.1177 91.166 33.7275 86.5308 33.7275 79.2156C33.7275 72.2883 34.0274 67.7644 34.3597 64.8781Z" fill="#3B1E77"/>
<path fill-rule="evenodd" clip-rule="evenodd" d="M68.7835 81.8044C70.9462 80.6271 72.41 78.3636 72.41 75.7646C72.41 71.9529 69.2611 68.8627 65.3769 68.8627C61.4927 68.8627 58.3438 71.9529 58.3438 75.7646C58.3438 78.3636 59.8075 80.6271 61.9702 81.8044L61.1132 88.5317C61.0271 89.2078 61.1475 89.9178 61.7049 90.324C62.3415 90.788 63.4725 91.294 65.3769 91.294C67.2813 91.294 68.4122 90.788 69.0489 90.324C69.6062 89.9178 69.7267 89.2078 69.6405 88.5317L68.7835 81.8044Z" fill="white"/>
<path d="M78.207 79.2484C77.0497 79.4508 76.2534 80.3387 76.1251 81.4889C75.9595 82.9742 75.7832 85.5157 75.7832 89.6059C75.7832 93.6961 75.9595 96.2376 76.1251 97.7228C76.2534 98.8731 77.0497 99.761 78.207 99.9634C79.2355 100.143 80.781 100.34 83.028 100.472V103.117C83.028 104.205 84.3057 104.809 85.1682 104.13L89.6163 100.627C94.9243 100.6 98.0131 100.259 99.7043 99.9634C100.862 99.761 101.658 98.8731 101.786 97.7228C101.952 96.2376 102.128 93.6961 102.128 89.6059C102.128 85.5157 101.952 82.9742 101.786 81.4889C101.658 80.3387 100.862 79.4508 99.7043 79.2484C97.9441 78.9407 94.67 78.5833 88.9556 78.5833C83.2413 78.5833 79.9672 78.9407 78.207 79.2484Z" fill="#863ED5"/>
<path d="M86.4043 89.2358C86.2101 89.4161 86.1167 89.6603 86.1241 89.9684H86.1232V91.4C86.1232 91.9624 86.5746 92.4184 87.1314 92.4184H88.0741C88.6309 92.4184 89.0823 91.9624 89.0823 91.4V91.0849L89.2235 91.0184C89.8559 90.7164 90.4166 90.403 90.9058 90.078C91.395 89.753 91.7916 89.3994 92.0957 89.0173C92.4124 88.6338 92.6352 88.209 92.7639 87.7427C92.904 87.2624 92.9411 86.7159 92.8751 86.1032C92.7404 84.8522 92.2416 83.8996 91.3785 83.2453C90.528 82.5896 89.3572 82.3436 87.8662 82.5074C87.3482 82.5644 86.8672 82.6689 86.4233 82.821C85.978 82.9603 85.5951 83.1444 85.2746 83.3734C84.9541 83.6024 84.7078 83.8683 84.5358 84.1713C84.3765 84.473 84.3168 84.8089 84.3567 85.1791C84.3873 85.464 84.4825 85.7158 84.6315 85.9285C84.945 86.3755 85.5711 86.2289 86.0232 85.9263C86.1364 85.8504 86.2521 85.7795 86.3703 85.7135C86.7427 85.4917 87.188 85.3524 87.7061 85.2955C88.2747 85.233 88.6942 85.329 88.9645 85.5835C89.2474 85.8365 89.4067 86.129 89.4425 86.4609C89.4824 86.8311 89.4023 87.1563 89.2023 87.4365C89.001 87.7041 88.7184 87.9289 88.3544 88.1109L87.2625 88.6571C86.9112 88.8378 86.6251 89.0307 86.4043 89.2358Z" fill="white"/>
<path d="M85.7393 95.5021C85.7393 94.9628 85.8981 94.5262 86.2159 94.1924C86.5463 93.8585 86.9976 93.6916 87.5695 93.6916C88.1415 93.6916 88.5863 93.8585 88.9041 94.1924C89.2345 94.5262 89.3997 94.9628 89.3997 95.5021C89.3997 96.0413 89.2345 96.4779 88.9041 96.8117C88.5863 97.1456 88.1415 97.3125 87.5695 97.3125C86.9976 97.3125 86.5463 97.1456 86.2159 96.8117C85.8981 96.4779 85.7393 96.0413 85.7393 95.5021Z" fill="white"/>
</svg>
