<svg width="41" height="41" viewBox="0 0 41 41" fill="none" xmlns="http://www.w3.org/2000/svg">
<rect width="41" height="41" rx="10" fill="#863ED5"/>
<path d="M17.95 26.075C17.3 26.075 16.735 25.99 16.255 25.82C15.785 25.64 15.415 25.35 15.145 24.95C14.875 24.55 14.725 24.005 14.695 23.315L14.425 17.585H16.21L16.45 22.76C16.48 23.19 16.555 23.52 16.675 23.75C16.805 23.97 16.985 24.12 17.215 24.2C17.445 24.27 17.74 24.305 18.1 24.305C18.41 24.305 18.63 24.39 18.76 24.56C18.9 24.72 18.97 24.92 18.97 25.16C18.97 25.41 18.88 25.625 18.7 25.805C18.52 25.985 18.27 26.075 17.95 26.075ZM15.385 24.59C14.745 24.75 14.13 24.825 13.54 24.815C12.95 24.805 12.42 24.705 11.95 24.515C11.48 24.325 11.105 24.055 10.825 23.705C10.555 23.345 10.42 22.895 10.42 22.355C10.42 21.865 10.535 21.415 10.765 21.005C10.995 20.595 11.31 20.235 11.71 19.925C12.12 19.605 12.595 19.34 13.135 19.13C13.675 18.91 14.26 18.75 14.89 18.65L15.1 20.45C14.64 20.47 14.23 20.53 13.87 20.63C13.51 20.73 13.205 20.865 12.955 21.035C12.705 21.195 12.51 21.37 12.37 21.56C12.24 21.75 12.175 21.95 12.175 22.16C12.175 22.35 12.24 22.505 12.37 22.625C12.51 22.745 12.69 22.84 12.91 22.91C13.13 22.98 13.375 23.02 13.645 23.03C13.925 23.04 14.2 23.03 14.47 23C14.75 22.96 15.015 22.895 15.265 22.805L15.385 24.59ZM15.28 15.98C15.02 15.98 14.8 15.89 14.62 15.71C14.44 15.52 14.35 15.3 14.35 15.05C14.35 14.8 14.44 14.58 14.62 14.39C14.8 14.2 15.02 14.105 15.28 14.105C15.53 14.105 15.745 14.2 15.925 14.39C16.105 14.58 16.195 14.8 16.195 15.05C16.195 15.3 16.105 15.52 15.925 15.71C15.745 15.89 15.53 15.98 15.28 15.98ZM12.895 15.965C12.635 15.965 12.41 15.875 12.22 15.695C12.04 15.515 11.95 15.3 11.95 15.05C11.95 14.8 12.04 14.58 12.22 14.39C12.4 14.2 12.625 14.105 12.895 14.105C13.145 14.105 13.36 14.2 13.54 14.39C13.72 14.58 13.81 14.8 13.81 15.05C13.81 15.3 13.72 15.515 13.54 15.695C13.36 15.875 13.145 15.965 12.895 15.965ZM18.5102 12.075V11.115L21.9752 10.08V11.085L18.5102 12.075ZM19.3773 16.135C18.9973 16.135 18.7423 16.005 18.6123 15.745C18.4823 15.485 18.4173 15.2 18.4173 14.89C18.4173 14.78 18.4223 14.665 18.4323 14.545C18.4523 14.415 18.4773 14.27 18.5073 14.11L19.3473 13.9C19.3173 14.07 19.2923 14.23 19.2723 14.38C19.2623 14.52 19.2573 14.645 19.2573 14.755C19.2573 14.905 19.2823 15.02 19.3323 15.1C19.3923 15.18 19.4723 15.22 19.5723 15.22C19.7123 15.22 19.8223 15.15 19.9023 15.01C19.9923 14.86 20.0373 14.57 20.0373 14.14V13.69L20.8473 13.42V14.335C20.8473 14.455 20.8723 14.56 20.9223 14.65C20.9723 14.73 21.0623 14.77 21.1923 14.77C21.3423 14.77 21.4473 14.725 21.5073 14.635C21.5673 14.535 21.5973 14.415 21.5973 14.275C21.5973 14.105 21.5773 13.935 21.5373 13.765C21.4973 13.585 21.4423 13.41 21.3723 13.24L22.1373 13.03C22.2373 13.22 22.3173 13.44 22.3773 13.69C22.4473 13.93 22.4823 14.15 22.4823 14.35C22.4823 14.68 22.3873 14.98 22.1973 15.25C22.0073 15.51 21.7073 15.64 21.2973 15.64C21.0073 15.64 20.7673 15.56 20.5773 15.4C20.3873 15.23 20.2923 15.03 20.2923 14.8L20.6373 14.935C20.6373 15.275 20.5173 15.56 20.2773 15.79C20.0473 16.02 19.7473 16.135 19.3773 16.135ZM17.9541 26.075L18.1041 24.305C18.5041 24.305 18.8191 24.27 19.0491 24.2C19.2791 24.12 19.4591 23.975 19.5891 23.765C19.7191 23.545 19.8291 23.23 19.9191 22.82C20.0191 22.4 20.1241 21.85 20.2341 21.17L21.8991 21.455C21.8691 21.615 21.8341 21.8 21.7941 22.01C21.7541 22.22 21.7191 22.43 21.6891 22.64C21.6591 22.85 21.6441 23.04 21.6441 23.21C21.6441 23.43 21.6941 23.625 21.7941 23.795C21.8941 23.955 22.0841 24.08 22.3641 24.17C22.6541 24.26 23.0791 24.305 23.6391 24.305C23.9491 24.305 24.1691 24.39 24.2991 24.56C24.4391 24.72 24.5091 24.92 24.5091 25.16C24.5091 25.41 24.4191 25.625 24.2391 25.805C24.0591 25.985 23.8091 26.075 23.4891 26.075C22.8091 26.075 22.2641 26.015 21.8541 25.895C21.4541 25.765 21.1541 25.56 20.9541 25.28C20.7641 25 20.6391 24.625 20.5791 24.155L21.1941 24.17C21.0241 24.59 20.8291 24.93 20.6091 25.19C20.3891 25.44 20.1441 25.63 19.8741 25.76C19.6041 25.88 19.3091 25.96 18.9891 26C18.6691 26.05 18.3241 26.075 17.9541 26.075ZM20.7441 19.64C20.4741 19.64 20.2441 19.55 20.0541 19.37C19.8641 19.18 19.7691 18.95 19.7691 18.68C19.7691 18.41 19.8641 18.18 20.0541 17.99C20.2441 17.79 20.4741 17.69 20.7441 17.69C21.0041 17.69 21.2291 17.79 21.4191 17.99C21.6091 18.18 21.7041 18.41 21.7041 18.68C21.7041 18.95 21.6091 19.18 21.4191 19.37C21.2291 19.55 21.0041 19.64 20.7441 19.64ZM25.0827 13.27L24.9327 12.415C25.5227 12.395 26.0377 12.305 26.4777 12.145C26.9277 11.985 27.2777 11.79 27.5277 11.56C27.7777 11.33 27.9027 11.1 27.9027 10.87C27.9027 10.71 27.8627 10.575 27.7827 10.465C27.7027 10.345 27.5827 10.285 27.4227 10.285C27.2827 10.285 27.1627 10.34 27.0627 10.45C26.9627 10.55 26.9127 10.675 26.9127 10.825C26.9127 11.015 26.9877 11.185 27.1377 11.335C27.2977 11.485 27.4877 11.605 27.7077 11.695L27.1377 12.235C26.8277 12.095 26.5627 11.91 26.3427 11.68C26.1227 11.45 26.0127 11.155 26.0127 10.795C26.0127 10.405 26.1477 10.08 26.4177 9.82C26.6877 9.55 27.0327 9.415 27.4527 9.415C27.8927 9.415 28.2227 9.56 28.4427 9.85C28.6727 10.14 28.7877 10.47 28.7877 10.84C28.7877 11.3 28.6227 11.71 28.2927 12.07C27.9727 12.42 27.5327 12.7 26.9727 12.91C26.4227 13.11 25.7927 13.23 25.0827 13.27ZM23.4912 26.075L23.6412 24.305C24.1712 24.305 24.5812 24.3 24.8712 24.29C25.1612 24.28 25.3762 24.27 25.5162 24.26C25.6562 24.24 25.7662 24.225 25.8462 24.215C25.7162 24.115 25.5562 23.965 25.3662 23.765C25.1762 23.565 25.0062 23.31 24.8562 23C24.7162 22.69 24.6462 22.315 24.6462 21.875C24.6462 21.285 24.7912 20.765 25.0812 20.315C25.3812 19.865 25.7862 19.515 26.2962 19.265C26.8062 19.005 27.3862 18.875 28.0362 18.875C28.3162 18.875 28.5912 18.895 28.8612 18.935C29.1312 18.975 29.4012 19.035 29.6712 19.115L29.3712 20.795C29.1712 20.745 28.9612 20.705 28.7412 20.675C28.5212 20.645 28.3212 20.63 28.1412 20.63C27.8012 20.63 27.5012 20.69 27.2412 20.81C26.9812 20.93 26.7812 21.095 26.6412 21.305C26.5012 21.505 26.4312 21.75 26.4312 22.04C26.4312 22.24 26.4712 22.43 26.5512 22.61C26.6312 22.78 26.7362 22.935 26.8662 23.075C26.9962 23.215 27.1362 23.335 27.2862 23.435C27.4462 23.525 27.6012 23.6 27.7512 23.66C27.9112 23.72 28.0462 23.755 28.1562 23.765C28.3662 23.705 28.5462 23.655 28.6962 23.615C28.8462 23.565 28.9962 23.515 29.1462 23.465C29.3062 23.405 29.4862 23.335 29.6862 23.255C29.8862 23.165 30.1412 23.055 30.4512 22.925L31.0212 24.575C30.2512 24.935 29.4862 25.225 28.7262 25.445C27.9662 25.665 27.1612 25.825 26.3112 25.925C25.4712 26.025 24.5312 26.075 23.4912 26.075ZM27.5562 17.435C27.2862 17.435 27.0562 17.345 26.8662 17.165C26.6762 16.975 26.5812 16.745 26.5812 16.475C26.5812 16.205 26.6762 15.975 26.8662 15.785C27.0562 15.585 27.2862 15.485 27.5562 15.485C27.8162 15.485 28.0412 15.585 28.2312 15.785C28.4212 15.975 28.5162 16.205 28.5162 16.475C28.5162 16.745 28.4212 16.975 28.2312 17.165C28.0412 17.345 27.8162 17.435 27.5562 17.435Z" fill="white"/>
</svg>
