<svg width="29" height="29" viewBox="0 0 29 29" fill="none" xmlns="http://www.w3.org/2000/svg">
<path d="M14.4132 28.8263C22.3734 28.8263 28.8263 22.3733 28.8263 14.4132C28.8263 6.45299 22.3734 0 14.4132 0C6.45301 0 0 6.45299 0 14.4132C0 22.3733 6.45301 28.8263 14.4132 28.8263Z" fill="#E0E0E0"/>
<path d="M14.4129 28.3882C22.2521 28.3882 28.607 22.0333 28.607 14.1941C28.607 6.35492 22.2521 0 14.4129 0C6.57369 0 0.21875 6.35492 0.21875 14.1941C0.21875 22.0333 6.57369 28.3882 14.4129 28.3882Z" fill="white"/>
<mask id="mask0_1_217" style="mask-type:luminance" maskUnits="userSpaceOnUse" x="4" y="4" width="20" height="20">
<path d="M23.6091 12.5292H14.6282V16.2529H19.7977C19.3158 18.6186 17.3006 19.9767 14.6282 19.9767C11.474 19.9767 8.93304 17.4358 8.93304 14.2815C8.93304 11.1273 11.474 8.58636 14.6282 8.58636C15.9863 8.58636 17.2129 9.06827 18.1767 9.85684L20.9805 7.05305C19.272 5.56354 17.0815 4.64355 14.6282 4.64355C9.28352 4.64355 4.99023 8.93684 4.99023 14.2815C4.99023 19.6262 9.28352 23.9195 14.6282 23.9195C19.4472 23.9195 23.8281 20.4148 23.8281 14.2815C23.8281 13.712 23.7405 13.0987 23.6091 12.5292Z" fill="white"/>
</mask>
<g mask="url(#mask0_1_217)">
<path d="M4.11426 19.9767V8.58636L11.5618 14.2815L4.11426 19.9767Z" fill="#FBBC05"/>
</g>
<mask id="mask1_1_217" style="mask-type:luminance" maskUnits="userSpaceOnUse" x="4" y="4" width="20" height="20">
<path d="M23.6091 12.5292H14.6282V16.2529H19.7977C19.3158 18.6186 17.3006 19.9767 14.6282 19.9767C11.474 19.9767 8.93304 17.4358 8.93304 14.2815C8.93304 11.1273 11.474 8.58636 14.6282 8.58636C15.9863 8.58636 17.2129 9.06827 18.1767 9.85684L20.9805 7.05305C19.272 5.56354 17.0815 4.64355 14.6282 4.64355C9.28352 4.64355 4.99023 8.93684 4.99023 14.2815C4.99023 19.6262 9.28352 23.9195 14.6282 23.9195C19.4472 23.9195 23.8281 20.4148 23.8281 14.2815C23.8281 13.712 23.7405 13.0987 23.6091 12.5292Z" fill="white"/>
</mask>
<g mask="url(#mask1_1_217)">
<path d="M4.11426 8.58645L11.5618 14.2816L14.6284 11.6093L25.1426 9.90072V3.76746H4.11426V8.58645Z" fill="#EA4335"/>
</g>
<mask id="mask2_1_217" style="mask-type:luminance" maskUnits="userSpaceOnUse" x="4" y="4" width="20" height="20">
<path d="M23.6081 12.5291H14.6272V16.2529H19.7967C19.3148 18.6186 17.2996 19.9766 14.6272 19.9766C11.473 19.9766 8.93207 17.4357 8.93207 14.2815C8.93207 11.1272 11.473 8.5863 14.6272 8.5863C15.9853 8.5863 17.212 9.06821 18.1758 9.85677L20.9795 7.05299C19.271 5.56348 17.0805 4.64349 14.6272 4.64349C9.28254 4.64349 4.98926 8.93678 4.98926 14.2815C4.98926 19.6262 9.28254 23.9195 14.6272 23.9195C19.4462 23.9195 23.8271 20.4147 23.8271 14.2815C23.8271 13.712 23.7395 13.0986 23.6081 12.5291Z" fill="white"/>
</mask>
<g mask="url(#mask2_1_217)">
<path d="M4.11328 19.9767L17.256 9.90065L20.7169 10.3387L25.1416 3.7674V24.7957H4.11328V19.9767Z" fill="#34A853"/>
</g>
<mask id="mask3_1_217" style="mask-type:luminance" maskUnits="userSpaceOnUse" x="4" y="4" width="20" height="20">
<path d="M23.6081 12.5291H14.6272V16.2529H19.7967C19.3148 18.6186 17.2996 19.9766 14.6272 19.9766C11.473 19.9766 8.93207 17.4357 8.93207 14.2815C8.93207 11.1272 11.473 8.5863 14.6272 8.5863C15.9853 8.5863 17.212 9.06821 18.1758 9.85677L20.9795 7.05299C19.271 5.56348 17.0805 4.64349 14.6272 4.64349C9.28254 4.64349 4.98926 8.93678 4.98926 14.2815C4.98926 19.6262 9.28254 23.9195 14.6272 23.9195C19.4462 23.9195 23.8271 20.4147 23.8271 14.2815C23.8271 13.712 23.7395 13.0986 23.6081 12.5291Z" fill="white"/>
</mask>
<g mask="url(#mask3_1_217)">
<path d="M25.1427 24.7956L11.5619 14.2815L9.80957 12.9672L25.1427 8.5863V24.7956Z" fill="#4285F4"/>
</g>
</svg>
