<svg width="41" height="41" viewBox="0 0 41 41" fill="none" xmlns="http://www.w3.org/2000/svg">
<rect width="41" height="41" rx="10" fill="#863ED5"/>
<path d="M6.08 31.895C5.9 31.215 5.745 30.565 5.615 29.945C5.495 29.335 5.405 28.775 5.345 28.265C5.285 27.765 5.255 27.345 5.255 27.005C5.255 26.345 5.37 25.795 5.6 25.355C5.83 24.905 6.135 24.55 6.515 24.29C6.905 24.02 7.33 23.83 7.79 23.72C8.26 23.61 8.73 23.56 9.2 23.57C9.68 23.58 10.13 23.63 10.55 23.72C10.57 23.4 10.545 23.105 10.475 22.835C10.415 22.555 10.315 22.315 10.175 22.115C10.045 21.905 9.885 21.745 9.695 21.635C9.505 21.515 9.295 21.455 9.065 21.455C8.855 21.455 8.65 21.505 8.45 21.605C8.25 21.705 8.06 21.855 7.88 22.055C7.7 22.255 7.53 22.505 7.37 22.805L6.005 22.04C6.275 21.46 6.58 21 6.92 20.66C7.27 20.32 7.635 20.075 8.015 19.925C8.405 19.765 8.785 19.685 9.155 19.685C9.725 19.685 10.21 19.805 10.61 20.045C11.02 20.285 11.345 20.6 11.585 20.99C11.835 21.37 12.015 21.78 12.125 22.22C12.245 22.65 12.305 23.065 12.305 23.465C12.305 23.755 12.27 24.045 12.2 24.335C12.14 24.625 12.065 24.885 11.975 25.115C11.895 25.345 11.815 25.525 11.735 25.655C11.195 25.505 10.68 25.395 10.19 25.325C9.71 25.255 9.275 25.235 8.885 25.265C8.505 25.285 8.175 25.365 7.895 25.505C7.615 25.635 7.4 25.83 7.25 26.09C7.1 26.35 7.025 26.68 7.025 27.08C7.025 27.45 7.055 27.88 7.115 28.37C7.175 28.86 7.26 29.37 7.37 29.9C7.48 30.43 7.605 30.955 7.745 31.475L6.08 31.895ZM17.4712 26.075C16.5912 26.075 15.9112 25.985 15.4312 25.805C14.9612 25.615 14.6312 25.325 14.4412 24.935C14.2612 24.535 14.1612 24.025 14.1412 23.405L13.8262 15.125H15.5962L15.9112 22.61C15.9312 23.08 15.9762 23.435 16.0462 23.675C16.1262 23.915 16.2862 24.08 16.5262 24.17C16.7662 24.26 17.1312 24.305 17.6212 24.305C17.9412 24.305 18.1712 24.39 18.3112 24.56C18.4512 24.72 18.5212 24.92 18.5212 25.16C18.5212 25.41 18.4262 25.625 18.2362 25.805C18.0562 25.985 17.8012 26.075 17.4712 26.075ZM19.56 13.075V12.115L23.025 11.08V12.085L19.56 13.075ZM17.4805 26.075L17.6305 24.305C18.1605 24.305 18.5705 24.3 18.8605 24.29C19.1505 24.28 19.3655 24.27 19.5055 24.26C19.6455 24.24 19.7555 24.225 19.8355 24.215C19.7055 24.115 19.5455 23.965 19.3555 23.765C19.1655 23.565 18.9955 23.31 18.8455 23C18.7055 22.69 18.6355 22.315 18.6355 21.875C18.6355 21.285 18.7805 20.765 19.0705 20.315C19.3705 19.865 19.7755 19.515 20.2855 19.265C20.7955 19.005 21.3755 18.875 22.0255 18.875C22.3055 18.875 22.5805 18.895 22.8505 18.935C23.1205 18.975 23.3905 19.035 23.6605 19.115L23.3605 20.795C23.1605 20.745 22.9505 20.705 22.7305 20.675C22.5105 20.645 22.3105 20.63 22.1305 20.63C21.7905 20.63 21.4905 20.69 21.2305 20.81C20.9705 20.93 20.7705 21.095 20.6305 21.305C20.4905 21.505 20.4205 21.75 20.4205 22.04C20.4205 22.24 20.4605 22.43 20.5405 22.61C20.6205 22.78 20.7255 22.935 20.8555 23.075C20.9855 23.215 21.1255 23.335 21.2755 23.435C21.4355 23.525 21.5905 23.6 21.7405 23.66C21.9005 23.72 22.0355 23.755 22.1455 23.765C22.3555 23.705 22.5355 23.655 22.6855 23.615C22.8355 23.565 22.9855 23.515 23.1355 23.465C23.2955 23.405 23.4755 23.335 23.6755 23.255C23.8755 23.165 24.1305 23.055 24.4405 22.925L25.0105 24.575C24.2405 24.935 23.4755 25.225 22.7155 25.445C21.9555 25.665 21.1505 25.825 20.3005 25.925C19.4605 26.025 18.5205 26.075 17.4805 26.075ZM21.5455 17.435C21.2755 17.435 21.0455 17.345 20.8555 17.165C20.6655 16.975 20.5705 16.745 20.5705 16.475C20.5705 16.205 20.6655 15.975 20.8555 15.785C21.0455 15.585 21.2755 15.485 21.5455 15.485C21.8055 15.485 22.0305 15.585 22.2205 15.785C22.4105 15.975 22.5055 16.205 22.5055 16.475C22.5055 16.745 22.4105 16.975 22.2205 17.165C22.0305 17.345 21.8055 17.435 21.5455 17.435ZM28.6715 16.73C28.2115 16.73 27.8615 16.59 27.6215 16.31C27.3915 16.03 27.2765 15.7 27.2765 15.32C27.2765 15 27.3365 14.715 27.4565 14.465C27.5865 14.215 27.7615 14.015 27.9815 13.865C28.2115 13.705 28.4715 13.625 28.7615 13.625C29.0215 13.625 29.2515 13.705 29.4515 13.865C29.6615 14.015 29.8265 14.215 29.9465 14.465C30.0665 14.705 30.1265 14.96 30.1265 15.23C30.1265 15.65 29.9915 16.005 29.7215 16.295C29.4515 16.585 29.1015 16.73 28.6715 16.73ZM28.6565 15.845C28.8265 15.845 28.9715 15.79 29.0915 15.68C29.2215 15.57 29.2865 15.425 29.2865 15.245C29.2865 15.055 29.2215 14.9 29.0915 14.78C28.9615 14.65 28.8215 14.585 28.6715 14.585C28.4815 14.585 28.3315 14.65 28.2215 14.78C28.1215 14.91 28.0715 15.06 28.0715 15.23C28.0715 15.41 28.1265 15.56 28.2365 15.68C28.3465 15.79 28.4865 15.845 28.6565 15.845ZM26.0621 25.37L26.7521 23.795C27.0521 23.945 27.3771 24.07 27.7271 24.17C28.0771 24.26 28.4471 24.305 28.8371 24.305C29.2471 24.305 29.5771 24.265 29.8271 24.185C30.0871 24.105 30.2771 23.99 30.3971 23.84C30.5271 23.68 30.5921 23.495 30.5921 23.285C30.5921 23.105 30.5421 22.87 30.4421 22.58C30.3521 22.28 30.1671 21.885 29.8871 21.395C29.6171 20.895 29.2121 20.265 28.6721 19.505L30.1721 18.515C30.6721 19.215 31.0871 19.88 31.4171 20.51C31.7571 21.13 32.0121 21.7 32.1821 22.22C32.3621 22.73 32.4521 23.175 32.4521 23.555C32.4521 24.025 32.3271 24.45 32.0771 24.83C31.8271 25.21 31.4471 25.515 30.9371 25.745C30.4271 25.975 29.7721 26.09 28.9721 26.09C28.6621 26.09 28.3321 26.06 27.9821 26C27.6321 25.95 27.2871 25.875 26.9471 25.775C26.6171 25.665 26.3221 25.53 26.0621 25.37ZM33.8715 32.67V31.71L37.3365 30.675V31.68L33.8715 32.67ZM34.3414 26L34.0264 15.125H35.7964L36.0964 26H34.3414ZM34.1164 30.605L33.8914 29.645C34.2114 29.585 34.4514 29.535 34.6114 29.495C34.7814 29.455 34.9664 29.41 35.1664 29.36L35.0464 29.705C34.7864 29.625 34.5364 29.45 34.2964 29.18C34.0664 28.92 33.9514 28.62 33.9514 28.28C33.9514 27.95 34.0264 27.675 34.1764 27.455C34.3364 27.245 34.5364 27.09 34.7764 26.99C35.0264 26.89 35.2864 26.84 35.5564 26.84C35.6964 26.84 35.8314 26.85 35.9614 26.87C36.0914 26.89 36.2114 26.92 36.3214 26.96L36.2014 27.905C36.1014 27.885 36.0014 27.865 35.9014 27.845C35.8114 27.825 35.7064 27.815 35.5864 27.815C35.4164 27.815 35.2714 27.86 35.1514 27.95C35.0414 28.04 34.9864 28.155 34.9864 28.295C34.9864 28.485 35.0464 28.645 35.1664 28.775C35.2964 28.915 35.4464 29.025 35.6164 29.105C35.7864 29.185 35.9264 29.23 36.0364 29.24L35.2864 29.315C35.5564 29.245 35.8114 29.17 36.0514 29.09C36.2914 29.02 36.5114 28.945 36.7114 28.865L36.9964 29.78C36.7464 29.87 36.4564 29.965 36.1264 30.065C35.7964 30.175 35.4564 30.275 35.1064 30.365C34.7664 30.455 34.4364 30.535 34.1164 30.605Z" fill="white"/>
</svg>
