<svg width="41" height="41" viewBox="0 0 41 41" fill="none" xmlns="http://www.w3.org/2000/svg">
<rect width="41" height="41" rx="10" fill="#863ED5"/>
<path d="M6.28 22.815C6.1 22.745 5.925 22.64 5.755 22.5C5.585 22.36 5.43 22.195 5.29 22.005C5.15 21.805 5.04 21.585 4.96 21.345C4.88 21.105 4.84 20.855 4.84 20.595C4.84 20.065 4.965 19.6 5.215 19.2C5.465 18.79 5.8 18.475 6.22 18.255C6.64 18.035 7.1 17.925 7.6 17.925C7.85 17.925 8.085 17.945 8.305 17.985C8.535 18.015 8.765 18.06 8.995 18.12L8.71 19.755C8.54 19.705 8.37 19.67 8.2 19.65C8.04 19.62 7.895 19.605 7.765 19.605C7.515 19.605 7.3 19.655 7.12 19.755C6.95 19.855 6.82 19.99 6.73 20.16C6.64 20.32 6.595 20.505 6.595 20.715C6.595 20.985 6.66 21.225 6.79 21.435C6.93 21.645 7.115 21.815 7.345 21.945C7.585 22.075 7.855 22.165 8.155 22.215L6.28 22.815ZM4.735 24.855L4.18 23.205C4.65 23.085 5.18 22.94 5.77 22.77C6.36 22.59 6.98 22.39 7.63 22.17C8.28 21.94 8.93 21.69 9.58 21.42L10.24 23.04C9.88 23.18 9.465 23.34 8.995 23.52C8.525 23.69 8.035 23.86 7.525 24.03C7.015 24.2 6.515 24.355 6.025 24.495C5.545 24.645 5.115 24.765 4.735 24.855ZM15.3286 24.075C14.4486 24.075 13.7686 23.985 13.2886 23.805C12.8186 23.615 12.4886 23.325 12.2986 22.935C12.1186 22.535 12.0186 22.025 11.9986 21.405L11.6836 13.125H13.4536L13.7686 20.61C13.7886 21.08 13.8336 21.435 13.9036 21.675C13.9836 21.915 14.1436 22.08 14.3836 22.17C14.6236 22.26 14.9886 22.305 15.4786 22.305C15.7986 22.305 16.0286 22.39 16.1686 22.56C16.3086 22.72 16.3786 22.92 16.3786 23.16C16.3786 23.41 16.2836 23.625 16.0936 23.805C15.9136 23.985 15.6586 24.075 15.3286 24.075ZM17.3148 12.075V11.115L20.7798 10.08V11.085L17.3148 12.075ZM15.3379 24.075L15.4879 22.305C15.8279 22.315 16.1479 22.315 16.4479 22.305C16.7579 22.285 17.0429 22.26 17.3029 22.23C17.5629 22.2 17.8029 22.165 18.0229 22.125C18.2429 22.075 18.4329 22.03 18.5929 21.99C18.9329 21.88 19.2329 21.745 19.4929 21.585C19.7529 21.415 19.9579 21.22 20.1079 21C20.2679 20.77 20.3479 20.52 20.3479 20.25C20.3479 20.05 20.3029 19.85 20.2129 19.65C20.1229 19.44 19.9979 19.265 19.8379 19.125C19.6779 18.985 19.4929 18.915 19.2829 18.915C19.0829 18.915 18.8979 18.98 18.7279 19.11C18.5579 19.24 18.4179 19.41 18.3079 19.62C18.2079 19.83 18.1579 20.06 18.1579 20.31C18.1579 20.56 18.2179 20.79 18.3379 21C18.4679 21.21 18.6329 21.405 18.8329 21.585C19.0329 21.755 19.2579 21.91 19.5079 22.05L17.7229 22.68C17.5329 22.5 17.3329 22.295 17.1229 22.065C16.9229 21.835 16.7529 21.565 16.6129 21.255C16.4729 20.945 16.4029 20.595 16.4029 20.205C16.4029 19.765 16.4829 19.365 16.6429 19.005C16.8129 18.635 17.0379 18.315 17.3179 18.045C17.5979 17.775 17.9129 17.565 18.2629 17.415C18.6129 17.265 18.9679 17.19 19.3279 17.19C19.8879 17.19 20.3729 17.33 20.7829 17.61C21.2029 17.89 21.5279 18.25 21.7579 18.69C21.9879 19.12 22.1029 19.585 22.1029 20.085C22.1029 20.555 22.0129 20.975 21.8329 21.345C21.6629 21.715 21.4279 22.045 21.1279 22.335C20.8379 22.615 20.5079 22.86 20.1379 23.07C19.7779 23.28 19.4079 23.45 19.0279 23.58C18.8279 23.66 18.5929 23.73 18.3229 23.79C18.0529 23.85 17.7579 23.905 17.4379 23.955C17.1179 23.995 16.7829 24.025 16.4329 24.045C16.0829 24.065 15.7179 24.075 15.3379 24.075ZM23.0779 24.075C22.5279 24.075 21.9729 24.045 21.4129 23.985C20.8629 23.925 20.3479 23.84 19.8679 23.73C19.3979 23.61 18.9979 23.47 18.6679 23.31L19.7029 22.02C20.0029 22.09 20.3529 22.145 20.7529 22.185C21.1629 22.225 21.5829 22.255 22.0129 22.275C22.4529 22.295 22.8579 22.305 23.2279 22.305C23.5379 22.305 23.7629 22.39 23.9029 22.56C24.0429 22.72 24.1129 22.92 24.1129 23.16C24.1129 23.41 24.0179 23.625 23.8279 23.805C23.6479 23.985 23.3979 24.075 23.0779 24.075ZM19.2829 15.75C19.0129 15.75 18.7829 15.66 18.5929 15.48C18.4029 15.29 18.3079 15.06 18.3079 14.79C18.3079 14.52 18.4029 14.29 18.5929 14.1C18.7829 13.9 19.0129 13.8 19.2829 13.8C19.5429 13.8 19.7679 13.9 19.9579 14.1C20.1479 14.29 20.2429 14.52 20.2429 14.79C20.2429 15.06 20.1479 15.29 19.9579 15.48C19.7679 15.66 19.5429 15.75 19.2829 15.75ZM25.3278 12.73C24.8678 12.73 24.5178 12.59 24.2778 12.31C24.0478 12.03 23.9328 11.7 23.9328 11.32C23.9328 11 23.9928 10.715 24.1128 10.465C24.2428 10.215 24.4178 10.015 24.6378 9.865C24.8678 9.705 25.1278 9.625 25.4178 9.625C25.6778 9.625 25.9078 9.705 26.1078 9.865C26.3178 10.015 26.4828 10.215 26.6028 10.465C26.7228 10.705 26.7828 10.96 26.7828 11.23C26.7828 11.65 26.6478 12.005 26.3778 12.295C26.1078 12.585 25.7578 12.73 25.3278 12.73ZM25.3128 11.845C25.4828 11.845 25.6278 11.79 25.7478 11.68C25.8778 11.57 25.9428 11.425 25.9428 11.245C25.9428 11.055 25.8778 10.9 25.7478 10.78C25.6178 10.65 25.4778 10.585 25.3278 10.585C25.1378 10.585 24.9878 10.65 24.8778 10.78C24.7778 10.91 24.7278 11.06 24.7278 11.23C24.7278 11.41 24.7828 11.56 24.8928 11.68C25.0028 11.79 25.1428 11.845 25.3128 11.845ZM23.0723 24.075L23.2223 22.305C23.7523 22.305 24.2773 22.27 24.7973 22.2C25.3173 22.13 25.8223 22.03 26.3123 21.9C26.8023 21.77 27.2723 21.605 27.7223 21.405C28.1723 21.205 28.5973 20.97 28.9973 20.7C28.7173 20.5 28.4023 20.33 28.0523 20.19C27.7123 20.04 27.3423 19.93 26.9423 19.86C26.5423 19.78 26.1173 19.74 25.6673 19.74C25.5073 19.74 25.3473 19.745 25.1873 19.755C25.0273 19.765 24.8623 19.785 24.6923 19.815C24.5323 19.835 24.3623 19.865 24.1823 19.905L23.9123 18.195C24.1923 18.115 24.4823 18.055 24.7823 18.015C25.0923 17.975 25.3723 17.955 25.6223 17.955C26.1523 17.955 26.6373 18.015 27.0773 18.135C27.5173 18.255 27.9223 18.405 28.2923 18.585C28.6623 18.765 29.0073 18.945 29.3273 19.125C29.6573 19.305 29.9723 19.46 30.2723 19.59C30.5723 19.71 30.8723 19.77 31.1723 19.77H31.6373L31.8173 21.42C31.3873 21.43 30.9873 21.505 30.6173 21.645C30.2473 21.775 29.8823 21.945 29.5223 22.155C29.1723 22.355 28.7973 22.565 28.3973 22.785C27.9973 23.005 27.5473 23.215 27.0473 23.415C26.5473 23.605 25.9723 23.765 25.3223 23.895C24.6723 24.015 23.9223 24.075 23.0723 24.075ZM25.6373 16.5C25.3673 16.5 25.1373 16.41 24.9473 16.23C24.7573 16.04 24.6623 15.81 24.6623 15.54C24.6623 15.27 24.7573 15.04 24.9473 14.85C25.1373 14.65 25.3673 14.55 25.6373 14.55C25.8973 14.55 26.1223 14.65 26.3123 14.85C26.5023 15.04 26.5973 15.27 26.5973 15.54C26.5973 15.81 26.5023 16.04 26.3123 16.23C26.1223 16.41 25.8973 16.5 25.6373 16.5ZM33.0912 30.67V29.71L36.5562 28.675V29.68L33.0912 30.67ZM33.5611 24L33.2461 13.125H35.0161L35.3161 24H33.5611ZM33.3361 28.605L33.1111 27.645C33.4311 27.585 33.6711 27.535 33.8311 27.495C34.0011 27.455 34.1861 27.41 34.3861 27.36L34.2661 27.705C34.0061 27.625 33.7561 27.45 33.5161 27.18C33.2861 26.92 33.1711 26.62 33.1711 26.28C33.1711 25.95 33.2461 25.675 33.3961 25.455C33.5561 25.245 33.7561 25.09 33.9961 24.99C34.2461 24.89 34.5061 24.84 34.7761 24.84C34.9161 24.84 35.0511 24.85 35.1811 24.87C35.3111 24.89 35.4311 24.92 35.5411 24.96L35.4211 25.905C35.3211 25.885 35.2211 25.865 35.1211 25.845C35.0311 25.825 34.9261 25.815 34.8061 25.815C34.6361 25.815 34.4911 25.86 34.3711 25.95C34.2611 26.04 34.2061 26.155 34.2061 26.295C34.2061 26.485 34.2661 26.645 34.3861 26.775C34.5161 26.915 34.6661 27.025 34.8361 27.105C35.0061 27.185 35.1461 27.23 35.2561 27.24L34.5061 27.315C34.7761 27.245 35.0311 27.17 35.2711 27.09C35.5111 27.02 35.7311 26.945 35.9311 26.865L36.2161 27.78C35.9661 27.87 35.6761 27.965 35.3461 28.065C35.0161 28.175 34.6761 28.275 34.3261 28.365C33.9861 28.455 33.6561 28.535 33.3361 28.605Z" fill="white"/>
</svg>
