<svg width="41" height="41" viewBox="0 0 41 41" fill="none" xmlns="http://www.w3.org/2000/svg">
<rect width="41" height="41" rx="10" fill="#863ED5"/>
<path d="M8.18 26.315L8.57 24.545C9.61 24.545 10.515 24.515 11.285 24.455C12.055 24.395 12.69 24.305 13.19 24.185C13.69 24.065 14.06 23.905 14.3 23.705C14.55 23.495 14.675 23.24 14.675 22.94C14.675 22.57 14.61 22.135 14.48 21.635C14.36 21.135 14.2 20.615 14 20.075L15.65 19.565C15.78 19.895 15.905 20.255 16.025 20.645C16.145 21.035 16.24 21.425 16.31 21.815C16.39 22.195 16.43 22.55 16.43 22.88C16.43 23.49 16.295 24.015 16.025 24.455C15.755 24.885 15.305 25.24 14.675 25.52C14.055 25.79 13.215 25.99 12.155 26.12C11.095 26.25 9.77 26.315 8.18 26.315ZM8.165 26.315C7.155 26.315 6.29 26.24 5.57 26.09C4.86 25.95 4.275 25.74 3.815 25.46C3.355 25.18 3.015 24.84 2.795 24.44C2.575 24.04 2.465 23.58 2.465 23.06C2.465 22.77 2.49 22.475 2.54 22.175C2.59 21.865 2.655 21.565 2.735 21.275C2.815 20.975 2.89 20.7 2.96 20.45L4.55 20.84C4.51 21.01 4.465 21.2 4.415 21.41C4.365 21.61 4.32 21.81 4.28 22.01C4.25 22.21 4.235 22.395 4.235 22.565C4.235 22.985 4.365 23.345 4.625 23.645C4.895 23.945 5.345 24.17 5.975 24.32C6.605 24.47 7.465 24.545 8.555 24.545L8.855 25.835L8.165 26.315ZM9.425 29.57C9.165 29.57 8.945 29.48 8.765 29.3C8.585 29.12 8.495 28.905 8.495 28.655C8.495 28.395 8.585 28.17 8.765 27.98C8.945 27.79 9.165 27.695 9.425 27.695C9.685 27.695 9.905 27.79 10.085 27.98C10.275 28.17 10.37 28.395 10.37 28.655C10.37 28.905 10.275 29.12 10.085 29.3C9.905 29.48 9.685 29.57 9.425 29.57ZM22.3461 13.075V12.115L25.8111 11.08V12.085L22.3461 13.075ZM26.9108 26.075C26.2508 26.075 25.7058 26.025 25.2758 25.925C24.8558 25.815 24.5208 25.655 24.2708 25.445C24.0308 25.225 23.8608 24.95 23.7608 24.62C23.6608 24.28 23.6008 23.875 23.5808 23.405L23.2658 15.125H25.0358L25.3508 22.61C25.3708 23.08 25.4208 23.435 25.5008 23.675C25.5808 23.915 25.7408 24.08 25.9808 24.17C26.2208 24.26 26.5808 24.305 27.0608 24.305C27.3808 24.305 27.6108 24.39 27.7508 24.56C27.8908 24.72 27.9608 24.92 27.9608 25.16C27.9608 25.41 27.8658 25.625 27.6758 25.805C27.4958 25.985 27.2408 26.075 26.9108 26.075ZM19.3058 26.075C19.0358 26.075 18.7608 26.05 18.4808 26C18.2108 25.96 18.0208 25.93 17.9108 25.91L18.1508 24.11C18.8408 24.2 19.5058 24.22 20.1458 24.17C20.7858 24.11 21.3508 23.945 21.8408 23.675C22.3408 23.395 22.7358 22.985 23.0258 22.445C23.3258 21.905 23.4758 21.205 23.4758 20.345L24.2408 22.49C24.1208 23.15 23.9258 23.7 23.6558 24.14C23.3958 24.58 23.0858 24.93 22.7258 25.19C22.3658 25.44 21.9808 25.63 21.5708 25.76C21.1708 25.89 20.7758 25.975 20.3858 26.015C19.9958 26.055 19.6358 26.075 19.3058 26.075ZM22.5608 24.02C22.4108 23.72 22.1908 23.37 21.9008 22.97C21.6208 22.57 21.2758 22.125 20.8658 21.635C20.4558 21.145 19.9908 20.63 19.4708 20.09C18.9608 19.55 18.3958 19 17.7758 18.44L18.9008 17.225C19.7208 18.015 20.4058 18.7 20.9558 19.28C21.5158 19.86 21.9758 20.365 22.3358 20.795C22.7058 21.225 23.0008 21.605 23.2208 21.935C23.4408 22.265 23.6258 22.57 23.7758 22.85L22.5608 24.02ZM30.359 11.73C29.899 11.73 29.549 11.59 29.309 11.31C29.079 11.03 28.964 10.7 28.964 10.32C28.964 10 29.024 9.715 29.144 9.465C29.274 9.215 29.449 9.015 29.669 8.865C29.899 8.705 30.159 8.625 30.449 8.625C30.709 8.625 30.939 8.705 31.139 8.865C31.349 9.015 31.514 9.215 31.634 9.465C31.754 9.705 31.814 9.96 31.814 10.23C31.814 10.65 31.679 11.005 31.409 11.295C31.139 11.585 30.789 11.73 30.359 11.73ZM30.344 10.845C30.514 10.845 30.659 10.79 30.779 10.68C30.909 10.57 30.974 10.425 30.974 10.245C30.974 10.055 30.909 9.9 30.779 9.78C30.649 9.65 30.509 9.585 30.359 9.585C30.169 9.585 30.019 9.65 29.909 9.78C29.809 9.91 29.759 10.06 29.759 10.23C29.759 10.41 29.814 10.56 29.924 10.68C30.034 10.79 30.174 10.845 30.344 10.845ZM26.9316 26.075L27.0816 24.305C27.6916 24.305 28.2116 24.305 28.6416 24.305C29.0716 24.295 29.4316 24.28 29.7216 24.26C30.0216 24.23 30.2666 24.19 30.4566 24.14C30.6466 24.09 30.8066 24.035 30.9366 23.975C31.1466 23.865 31.3166 23.725 31.4466 23.555C31.5766 23.385 31.6716 23.16 31.7316 22.88C31.7916 22.59 31.8216 22.23 31.8216 21.8C31.8216 21.33 31.7766 20.925 31.6866 20.585C31.5966 20.235 31.4616 19.97 31.2816 19.79C31.1116 19.6 30.9066 19.505 30.6666 19.505C30.4766 19.505 30.3016 19.57 30.1416 19.7C29.9916 19.83 29.8666 20.005 29.7666 20.225C29.6766 20.435 29.6316 20.66 29.6316 20.9C29.6316 21.06 29.6666 21.2 29.7366 21.32C29.8166 21.44 29.9416 21.535 30.1116 21.605C30.2816 21.665 30.4966 21.695 30.7566 21.695C31.0066 21.695 31.2616 21.665 31.5216 21.605C31.7816 21.545 32.0166 21.465 32.2266 21.365L32.2866 22.88C32.1266 22.99 31.9416 23.085 31.7316 23.165C31.5316 23.245 31.3166 23.305 31.0866 23.345C30.8566 23.385 30.6266 23.405 30.3966 23.405C29.8766 23.405 29.4266 23.33 29.0466 23.18C28.6766 23.03 28.3916 22.8 28.1916 22.49C27.9916 22.17 27.8916 21.765 27.8916 21.275C27.8916 20.855 27.9616 20.44 28.1016 20.03C28.2416 19.61 28.4366 19.23 28.6866 18.89C28.9466 18.54 29.2516 18.265 29.6016 18.065C29.9616 17.855 30.3566 17.75 30.7866 17.75C31.4166 17.75 31.9366 17.94 32.3466 18.32C32.7566 18.69 33.0616 19.19 33.2616 19.82C33.4616 20.45 33.5616 21.135 33.5616 21.875C33.5616 22.605 33.4466 23.235 33.2166 23.765C32.9866 24.285 32.6716 24.705 32.2716 25.025C32.0416 25.235 31.7666 25.41 31.4466 25.55C31.1266 25.68 30.7566 25.785 30.3366 25.865C29.9166 25.945 29.4266 26 28.8666 26.03C28.3066 26.06 27.6616 26.075 26.9316 26.075ZM31.8666 16.31C31.6066 16.31 31.3866 16.22 31.2066 16.04C31.0266 15.85 30.9366 15.63 30.9366 15.38C30.9366 15.13 31.0266 14.91 31.2066 14.72C31.3866 14.53 31.6066 14.435 31.8666 14.435C32.1166 14.435 32.3316 14.53 32.5116 14.72C32.6916 14.91 32.7816 15.13 32.7816 15.38C32.7816 15.63 32.6916 15.85 32.5116 16.04C32.3316 16.22 32.1166 16.31 31.8666 16.31ZM29.4816 16.295C29.2216 16.295 28.9966 16.205 28.8066 16.025C28.6266 15.845 28.5366 15.63 28.5366 15.38C28.5366 15.13 28.6266 14.91 28.8066 14.72C28.9866 14.53 29.2116 14.435 29.4816 14.435C29.7316 14.435 29.9466 14.53 30.1266 14.72C30.3066 14.91 30.3966 15.13 30.3966 15.38C30.3966 15.63 30.3066 15.845 30.1266 16.025C29.9466 16.205 29.7316 16.295 29.4816 16.295ZM34.9877 32.67V31.71L38.4527 30.675V31.68L34.9877 32.67ZM35.4576 26L35.1426 15.125H36.9126L37.2126 26H35.4576ZM35.2326 30.605L35.0076 29.645C35.3276 29.585 35.5676 29.535 35.7276 29.495C35.8976 29.455 36.0826 29.41 36.2826 29.36L36.1626 29.705C35.9026 29.625 35.6526 29.45 35.4126 29.18C35.1826 28.92 35.0676 28.62 35.0676 28.28C35.0676 27.95 35.1426 27.675 35.2926 27.455C35.4526 27.245 35.6526 27.09 35.8926 26.99C36.1426 26.89 36.4026 26.84 36.6726 26.84C36.8126 26.84 36.9476 26.85 37.0776 26.87C37.2076 26.89 37.3276 26.92 37.4376 26.96L37.3176 27.905C37.2176 27.885 37.1176 27.865 37.0176 27.845C36.9276 27.825 36.8226 27.815 36.7026 27.815C36.5326 27.815 36.3876 27.86 36.2676 27.95C36.1576 28.04 36.1026 28.155 36.1026 28.295C36.1026 28.485 36.1626 28.645 36.2826 28.775C36.4126 28.915 36.5626 29.025 36.7326 29.105C36.9026 29.185 37.0426 29.23 37.1526 29.24L36.4026 29.315C36.6726 29.245 36.9276 29.17 37.1676 29.09C37.4076 29.02 37.6276 28.945 37.8276 28.865L38.1126 29.78C37.8626 29.87 37.5726 29.965 37.2426 30.065C36.9126 30.175 36.5726 30.275 36.2226 30.365C35.8826 30.455 35.5526 30.535 35.2326 30.605Z" fill="white"/>
</svg>
