<svg width="41" height="41" viewBox="0 0 41 41" fill="none" xmlns="http://www.w3.org/2000/svg">
<rect width="41" height="41" rx="10" fill="#863ED5"/>
<path d="M4.165 29.45L3.535 27.83C4.445 27.52 5.17 27.165 5.71 26.765C6.25 26.375 6.635 25.965 6.865 25.535C7.105 25.095 7.225 24.655 7.225 24.215C7.225 23.935 7.19 23.655 7.12 23.375C7.05 23.085 6.94 22.77 6.79 22.43C6.65 22.09 6.465 21.715 6.235 21.305L7.87 20.51C8.23 21.17 8.5 21.8 8.68 22.4C8.87 23 8.965 23.545 8.965 24.035C8.965 24.575 8.885 25.085 8.725 25.565C8.575 26.035 8.355 26.465 8.065 26.855C7.785 27.255 7.445 27.615 7.045 27.935C6.645 28.265 6.2 28.555 5.71 28.805C5.23 29.055 4.715 29.27 4.165 29.45ZM14.4937 26.075C13.6137 26.075 12.9337 25.985 12.4537 25.805C11.9837 25.615 11.6537 25.325 11.4637 24.935C11.2837 24.535 11.1837 24.025 11.1637 23.405L10.8487 15.125H12.6187L12.9337 22.61C12.9537 23.08 12.9987 23.435 13.0687 23.675C13.1487 23.915 13.3087 24.08 13.5487 24.17C13.7887 24.26 14.1537 24.305 14.6437 24.305C14.9637 24.305 15.1937 24.39 15.3337 24.56C15.4737 24.72 15.5437 24.92 15.5437 25.16C15.5437 25.41 15.4487 25.625 15.2587 25.805C15.0787 25.985 14.8237 26.075 14.4937 26.075ZM17.3148 17.075V16.115L20.7798 15.08V16.085L17.3148 17.075ZM19.3779 29.285C18.6979 29.285 18.0729 29.135 17.5029 28.835C16.9429 28.535 16.4929 28.075 16.1529 27.455C15.8129 26.835 15.6429 26.04 15.6429 25.07C15.6429 24.21 15.7429 23.42 15.9429 22.7C16.1529 21.98 16.4279 21.36 16.7679 20.84C17.1179 20.31 17.5079 19.9 17.9379 19.61C18.3679 19.32 18.8129 19.175 19.2729 19.175C19.6329 19.175 19.9679 19.28 20.2779 19.49C20.5879 19.69 20.8379 19.985 21.0279 20.375C21.2279 20.755 21.3279 21.22 21.3279 21.77C21.3279 22.12 21.2629 22.5 21.1329 22.91C21.0029 23.32 20.7679 23.7 20.4279 24.05C20.0879 24.4 19.6129 24.675 19.0029 24.875L19.6029 23.825C19.9229 23.925 20.2579 24.01 20.6079 24.08C20.9579 24.15 21.3229 24.205 21.7029 24.245C22.0829 24.285 22.4629 24.305 22.8429 24.305C23.1629 24.305 23.3929 24.39 23.5329 24.56C23.6729 24.72 23.7429 24.92 23.7429 25.16C23.7429 25.41 23.6479 25.625 23.4579 25.805C23.2779 25.985 23.0229 26.075 22.6929 26.075C22.4229 26.075 22.1179 26.06 21.7779 26.03C21.4379 26 21.1029 25.96 20.7729 25.91C20.4529 25.86 20.1679 25.805 19.9179 25.745L21.4329 25.505C21.6629 25.775 21.8229 26.075 21.9129 26.405C22.0029 26.745 22.0179 27.08 21.9579 27.41C21.9079 27.75 21.7779 28.06 21.5679 28.34C21.3579 28.63 21.0679 28.86 20.6979 29.03C20.3379 29.2 19.8979 29.285 19.3779 29.285ZM14.5029 26.075L14.6529 24.305C14.8429 24.305 15.0629 24.305 15.3129 24.305C15.5729 24.305 15.8079 24.3 16.0179 24.29L16.1379 25.91C15.8679 25.96 15.5829 26 15.2829 26.03C14.9829 26.06 14.7229 26.075 14.5029 26.075ZM19.3479 27.53C19.5479 27.53 19.7179 27.495 19.8579 27.425C20.0079 27.365 20.1229 27.27 20.2029 27.14C20.2929 27.01 20.3379 26.85 20.3379 26.66C20.3379 26.5 20.2879 26.33 20.1879 26.15C20.0879 25.98 19.9129 25.835 19.6629 25.715C19.4129 25.595 19.0529 25.535 18.5829 25.535C18.4429 25.535 18.2879 25.545 18.1179 25.565C17.9579 25.585 17.7879 25.61 17.6079 25.64C17.4279 25.67 17.2429 25.71 17.0529 25.76L17.0979 24.245C17.4779 24.215 17.8179 24.15 18.1179 24.05C18.4279 23.95 18.6879 23.815 18.8979 23.645C19.1179 23.465 19.2879 23.245 19.4079 22.985C19.5279 22.715 19.5879 22.395 19.5879 22.025C19.5879 21.865 19.5729 21.705 19.5429 21.545C19.5129 21.375 19.4579 21.23 19.3779 21.11C19.3079 20.99 19.2179 20.93 19.1079 20.93C18.9479 20.93 18.7729 21.025 18.5829 21.215C18.3929 21.405 18.2079 21.675 18.0279 22.025C17.8479 22.365 17.6979 22.775 17.5779 23.255C17.4679 23.725 17.4129 24.25 17.4129 24.83C17.4129 25.37 17.4729 25.815 17.5929 26.165C17.7129 26.515 17.8679 26.79 18.0579 26.99C18.2479 27.19 18.4579 27.33 18.6879 27.41C18.9179 27.49 19.1379 27.53 19.3479 27.53ZM28.9606 13.73C28.5006 13.73 28.1506 13.59 27.9106 13.31C27.6806 13.03 27.5656 12.7 27.5656 12.32C27.5656 12 27.6256 11.715 27.7456 11.465C27.8756 11.215 28.0506 11.015 28.2706 10.865C28.5006 10.705 28.7606 10.625 29.0506 10.625C29.3106 10.625 29.5406 10.705 29.7406 10.865C29.9506 11.015 30.1156 11.215 30.2356 11.465C30.3556 11.705 30.4156 11.96 30.4156 12.23C30.4156 12.65 30.2806 13.005 30.0106 13.295C29.7406 13.585 29.3906 13.73 28.9606 13.73ZM28.9456 12.845C29.1156 12.845 29.2606 12.79 29.3806 12.68C29.5106 12.57 29.5756 12.425 29.5756 12.245C29.5756 12.055 29.5106 11.9 29.3806 11.78C29.2506 11.65 29.1106 11.585 28.9606 11.585C28.7706 11.585 28.6206 11.65 28.5106 11.78C28.4106 11.91 28.3606 12.06 28.3606 12.23C28.3606 12.41 28.4156 12.56 28.5256 12.68C28.6356 12.79 28.7756 12.845 28.9456 12.845ZM22.7061 26.075L22.8561 24.305H26.1261C27.0461 24.305 27.8161 24.27 28.4361 24.2C29.0661 24.12 29.5711 24.01 29.9511 23.87C30.3411 23.73 30.6211 23.56 30.7911 23.36C30.9711 23.16 31.0611 22.935 31.0611 22.685C31.0611 22.505 31.0111 22.325 30.9111 22.145C30.8111 21.955 30.6611 21.8 30.4611 21.68C30.2711 21.55 30.0111 21.485 29.6811 21.485C29.2711 21.485 28.8611 21.59 28.4511 21.8C28.0411 22 27.6461 22.265 27.2661 22.595C26.8861 22.915 26.5361 23.26 26.2161 23.63C25.8961 24 25.6211 24.355 25.3911 24.695L23.4861 24.485C23.8661 23.885 24.2911 23.3 24.7611 22.73C25.2411 22.16 25.7561 21.65 26.3061 21.2C26.8561 20.74 27.4261 20.38 28.0161 20.12C28.6061 19.85 29.2111 19.715 29.8311 19.715C30.4511 19.715 30.9811 19.845 31.4211 20.105C31.8611 20.355 32.2011 20.7 32.4411 21.14C32.6811 21.57 32.8011 22.07 32.8011 22.64C32.8011 23.22 32.6211 23.765 32.2611 24.275C31.9111 24.775 31.3111 25.18 30.4611 25.49C30.0711 25.63 29.6361 25.745 29.1561 25.835C28.6861 25.915 28.1411 25.975 27.5211 26.015C26.9011 26.055 26.1711 26.075 25.3311 26.075H22.7061ZM24.2211 24.56L23.9061 15.125H25.6761L25.9461 22.715L24.2211 24.56ZM29.2761 18.275C29.0061 18.275 28.7761 18.185 28.5861 18.005C28.3961 17.815 28.3011 17.585 28.3011 17.315C28.3011 17.045 28.3961 16.815 28.5861 16.625C28.7761 16.425 29.0061 16.325 29.2761 16.325C29.5361 16.325 29.7611 16.425 29.9511 16.625C30.1411 16.815 30.2361 17.045 30.2361 17.315C30.2361 17.585 30.1411 17.815 29.9511 18.005C29.7611 18.185 29.5361 18.275 29.2761 18.275ZM34.2191 32.67V31.71L37.6841 30.675V31.68L34.2191 32.67ZM34.6891 26L34.3741 15.125H36.1441L36.4441 26H34.6891ZM34.4641 30.605L34.2391 29.645C34.5591 29.585 34.7991 29.535 34.9591 29.495C35.1291 29.455 35.3141 29.41 35.5141 29.36L35.3941 29.705C35.1341 29.625 34.8841 29.45 34.6441 29.18C34.4141 28.92 34.2991 28.62 34.2991 28.28C34.2991 27.95 34.3741 27.675 34.5241 27.455C34.6841 27.245 34.8841 27.09 35.1241 26.99C35.3741 26.89 35.6341 26.84 35.9041 26.84C36.0441 26.84 36.1791 26.85 36.3091 26.87C36.4391 26.89 36.5591 26.92 36.6691 26.96L36.5491 27.905C36.4491 27.885 36.3491 27.865 36.2491 27.845C36.1591 27.825 36.0541 27.815 35.9341 27.815C35.7641 27.815 35.6191 27.86 35.4991 27.95C35.3891 28.04 35.3341 28.155 35.3341 28.295C35.3341 28.485 35.3941 28.645 35.5141 28.775C35.6441 28.915 35.7941 29.025 35.9641 29.105C36.1341 29.185 36.2741 29.23 36.3841 29.24L35.6341 29.315C35.9041 29.245 36.1591 29.17 36.3991 29.09C36.6391 29.02 36.8591 28.945 37.0591 28.865L37.3441 29.78C37.0941 29.87 36.8041 29.965 36.4741 30.065C36.1441 30.175 35.8041 30.275 35.4541 30.365C35.1141 30.455 34.7841 30.535 34.4641 30.605Z" fill="white"/>
</svg>
