<svg width="129" height="131" viewBox="0 0 129 131" fill="none" xmlns="http://www.w3.org/2000/svg">
<path d="M64.5 7C96.3851 7 122 33.3214 122 65.5C122 97.6786 96.3851 124 64.5 124C32.6149 124 7 97.6786 7 65.5C7 33.3214 32.6149 7 64.5 7Z" fill="white" stroke="#863ED5" stroke-width="14"/>
<path d="M65.25 33.3333C83.4755 33.3333 98.25 47.6601 98.25 65.3333C98.25 83.0065 83.4755 97.3333 65.25 97.3333C47.0245 97.3333 32.25 83.0065 32.25 65.3333C32.25 47.6601 47.0245 33.3333 65.25 33.3333Z" fill="#592B9C"/>
<path d="M65.25 43.3333C77.4003 43.3333 87.25 52.9591 87.25 64.8333C87.25 76.7075 77.4003 86.3333 65.25 86.3333C53.0997 86.3333 43.25 76.7075 43.25 64.8333C43.25 52.9591 53.0997 43.3333 65.25 43.3333Z" fill="white"/>
<path d="M63.5489 80.365C60.6248 82.3971 57.0127 81.0666 56.7996 77.904C56.6816 76.1528 56.5785 73.9442 56.5167 71.1765C39.9426 71.0379 27.0367 70.716 20.9971 70.5427C18.8947 70.4824 17.25 69.0478 17.25 67.2997V63.7087C17.25 61.9867 18.8468 60.5651 20.9162 60.4759C26.9208 60.2168 39.8678 59.7304 56.5159 59.5218C56.5775 56.7397 56.681 54.521 56.7994 52.7632C57.0125 49.6 60.6257 48.2693 63.5504 50.3019C65.2932 51.5131 67.4417 53.0848 70.0284 55.1059C74.3647 58.4939 76.8538 61.0403 78.2607 62.7448C79.5799 64.3429 79.5797 66.3222 78.2605 67.9203C76.8535 69.6246 74.3644 72.1709 70.0284 75.5592C67.4409 77.5813 65.292 79.1536 63.5489 80.365Z" fill="#863ED5"/>
</svg>
