<svg width="41" height="42" viewBox="0 0 41 42" fill="none" xmlns="http://www.w3.org/2000/svg">
<rect width="40.8649" height="42" rx="10" fill="#A448C4" fill-opacity="0.17"/>
<path d="M10.949 23.7696C10.736 25.1636 11.687 26.1306 12.8509 26.6125C17.3139 28.4625 23.5239 28.4625 27.9869 26.6125C29.1509 26.1306 30.1019 25.1626 29.8889 23.7696C29.7589 22.9126 29.1119 22.1997 28.6329 21.5027C28.0059 20.5787 27.9439 19.5717 27.9429 18.4998C27.9439 14.3579 24.5759 11 20.4189 11C16.2619 11 12.8939 14.3579 12.8939 18.4998C12.8939 19.5717 12.8319 20.5797 12.204 21.5027C11.726 22.1997 11.08 22.9126 10.949 23.7696Z" stroke="#863ED5" stroke-width="2" stroke-linecap="round" stroke-linejoin="round"/>
<path d="M15.9189 28C16.4342 29.725 18.2544 31 20.4189 31C22.5846 31 24.4026 29.725 24.9189 28" stroke="#863ED5" stroke-width="2" stroke-linecap="round" stroke-linejoin="round"/>
</svg>
