<svg width="32" height="32" viewBox="0 0 32 32" fill="none" xmlns="http://www.w3.org/2000/svg">
<path d="M7.34312 14.4927L22.2151 6.0579" stroke="#8789A3" stroke-width="1.5" stroke-linecap="round" stroke-linejoin="round"/>
<path d="M21.5771 9.6001L22.8092 5.37L18.3213 4.38407" stroke="#8789A3" stroke-width="1.5" stroke-linecap="round" stroke-linejoin="round"/>
<path d="M6.85985 28L24.7354 27.8752" stroke="#8789A3" stroke-width="1.5" stroke-linecap="round" stroke-linejoin="round"/>
<path d="M11.6973 19.5434V24.2301C11.6973 24.8053 11.1859 25.2715 10.5552 25.2715H8.27092C7.64015 25.2715 7.12881 24.8053 7.12881 24.2301V19.5434C7.12881 18.9682 7.64015 18.5019 8.27092 18.5019H10.5552C11.1859 18.5019 11.6973 18.9682 11.6973 19.5434Z" stroke="#8789A3" stroke-width="1.5" stroke-linecap="round" stroke-linejoin="round"/>
<path d="M18.2812 15.3774V24.2301C18.2812 24.8053 17.7699 25.2715 17.1391 25.2715H14.8549C14.2241 25.2715 13.7128 24.8053 13.7128 24.2301V15.3774C13.7128 14.8022 14.2241 14.3359 14.8549 14.3359H17.1391C17.7699 14.3359 18.2812 14.8022 18.2812 15.3774Z" stroke="#8789A3" stroke-width="1.5" stroke-linecap="round" stroke-linejoin="round"/>
<path d="M25 12.8007V24.2075C25 24.9486 24.4736 25.5494 23.8243 25.5494H21.4729C20.8236 25.5494 20.2972 24.9486 20.2972 24.2075V12.8007C20.2972 12.0596 20.8236 11.4587 21.4729 11.4587H23.8243C24.4736 11.4587 25 12.0596 25 12.8007Z" stroke="#8789A3" stroke-width="1.5" stroke-linecap="round" stroke-linejoin="round"/>
</svg>
