<svg width="32" height="32" viewBox="0 0 32 32" fill="none" xmlns="http://www.w3.org/2000/svg">
<g clip-path="url(#clip0_2030_556)">
<path d="M24.4281 4.21758L21.4587 5.40539L20.8783 4.07812L19.5609 4.22086C18.239 4.36354 17.0878 4.84118 15.987 5.71044C14.886 4.83905 13.7429 4.36184 12.4391 4.2208L11.1213 4.07812L10.5413 5.40539L7.57129 4.21758L2 17.2173L5.32675 18.486V27.9215L15.9863 22.5918L26.6459 27.9215V18.4947L30 17.2177L24.4281 4.21758ZM6.96672 25.2681V19.1119L13.9507 21.7762L6.96672 25.2681ZM15.1665 20.4844L4.18001 16.2933L8.4482 6.33415L9.88353 6.90864L6.21734 15.2935L15.1664 18.7352L15.1665 20.4844ZM15.1665 16.9778L8.99037 14.6027C10.0455 14.0635 11.2984 13.9936 12.4419 14.4589L15.1664 15.6516L15.1665 16.9778ZM15.1665 13.8614L13.0716 12.9446C11.7739 12.4133 10.374 12.3767 9.10363 12.7856L12.1417 5.83835C12.3105 5.88134 13.6119 5.83988 15.1665 7.159V13.8614ZM16.8062 7.16004C18.3317 5.87215 19.7717 5.86039 19.8583 5.83841L22.8838 12.7587C21.6867 12.3772 20.3851 12.4286 19.124 12.9446L16.8062 13.8937V7.16004ZM16.8062 15.6659L19.745 14.4626C20.8562 14.0073 22.0158 14.0669 23.0222 14.5961L16.8062 16.9795V15.6659ZM25.0059 25.2681L18.0237 21.7768L25.0059 19.1188V25.2681ZM16.8062 20.4855V18.7356L25.7826 15.2941L22.1158 6.90864L23.5514 6.3342L27.8196 16.2929L16.8062 20.4855Z" fill="white"/>
</g>
<defs>
<clipPath id="clip0_2030_556">
<rect width="28" height="28" fill="white" transform="translate(2 2)"/>
</clipPath>
</defs>
</svg>
