<svg width="131" height="131" viewBox="0 0 131 131" fill="none" xmlns="http://www.w3.org/2000/svg">
<circle cx="65.5" cy="65.5" r="58.5" fill="white" stroke="#863ED5" stroke-width="14"/>
<path fill-rule="evenodd" clip-rule="evenodd" d="M44.8697 47.2568C45.451 37.5665 53.6346 30 63.5338 30H68.486C78.3852 30 86.5688 37.5665 87.15 47.2568L88.0968 63.0397C88.2621 65.7963 86.1173 68.1625 83.3061 68.3247C80.4948 68.4868 78.0818 66.3837 77.9164 63.627L76.9695 47.844C76.7054 43.4393 72.9855 40 68.486 40H63.5338C59.0343 40 55.3144 43.4393 55.0502 47.844L54.1034 63.627C53.938 66.3837 51.525 68.4868 48.7137 68.3247C45.9025 68.1625 43.7576 65.7963 43.923 63.0397L44.8697 47.2568Z" fill="#863ED5"/>
<path d="M36.0271 62.818C36.3595 59.9321 38.5221 57.9275 41.4658 57.6078C45.6028 57.1585 53.0836 56.6666 66.0101 56.6666C79.2933 56.6666 86.7505 57.186 90.7467 57.6448C93.4331 57.9533 95.4484 59.7385 95.8281 62.3643C96.227 65.1236 96.6041 69.6008 96.6041 76.6666C96.6041 83.7325 96.227 88.2096 95.8281 90.969C95.4484 93.5948 93.4331 95.38 90.7467 95.6885C86.7505 96.1473 79.2933 96.6666 66.0101 96.6666C52.7268 96.6666 45.2697 96.1473 41.2734 95.6885C38.5871 95.38 36.5718 93.5948 36.1922 90.969C35.7932 88.2096 35.416 83.7325 35.416 76.6666C35.416 69.9755 35.7059 65.6058 36.0271 62.818Z" fill="#3B1E77"/>
<path fill-rule="evenodd" clip-rule="evenodd" d="M69.3027 79.1672C71.3933 78.03 72.8083 75.8437 72.8083 73.3334C72.8083 69.6515 69.7644 66.6667 66.0096 66.6667C62.2549 66.6667 59.2109 69.6515 59.2109 73.3334C59.2109 75.8437 60.6259 78.03 62.7165 79.1672L61.8881 85.6652C61.8048 86.3182 61.9212 87.004 62.46 87.3964C63.0755 87.8445 64.1687 88.3334 66.0096 88.3334C67.8505 88.3334 68.9438 87.8445 69.5592 87.3964C70.098 87.004 70.2144 86.3182 70.1311 85.6652L69.3027 79.1672Z" fill="white"/>
<path d="M88.4457 100C81.1238 100 75.1883 94.1797 75.1883 87C75.1883 79.8203 81.1238 74 88.4457 74C95.7676 74 101.703 79.8203 101.703 87C101.703 94.1797 95.7676 100 88.4457 100Z" fill="#863ED5"/>
<path d="M81.9437 91.7205C83.5378 93.8767 86.0745 95.0482 88.658 94.9985C92.8157 94.9184 96.3415 91.5824 96.59 87.4683C96.8587 83.0212 93.1996 79.0976 88.658 79.0018C86.3805 78.9538 84.0171 79.8508 82.4287 81.4581C82.4209 81.466 82.4133 81.4739 82.4057 81.4819C82.0333 81.2555 81.7145 81.0823 81.4473 80.9501C80.8753 80.6671 80.3061 81.0414 80.2915 81.6723C80.2736 82.4467 80.3041 83.6098 80.5014 85.1426C80.582 85.7687 81.1819 86.1946 81.8095 86.0713C83.3461 85.7694 84.4742 85.4288 85.2132 85.1664C85.8153 84.9526 85.9946 84.3014 85.541 83.8563C85.3242 83.6436 85.0491 83.3941 84.7023 83.1097C84.7131 83.0977 84.7238 83.0856 84.7343 83.0733C85.7159 81.924 86.8831 81.2364 88.658 81.2882C91.9357 81.3838 94.5369 84.2627 94.2667 87.4683C94.0252 90.3342 91.5597 92.6327 88.658 92.7121C86.8761 92.7608 85.1201 91.9952 83.9659 90.5673C83.6177 90.1365 83.1413 89.8 82.6316 90.0258C82.5376 90.0675 82.4359 90.1184 82.3268 90.1806C82.2176 90.2427 82.122 90.3041 82.0384 90.3636C81.5853 90.6859 81.6146 91.2752 81.9437 91.7205Z" fill="white"/>
</svg>
