<svg width="42" height="42" viewBox="0 0 42 42" fill="none" xmlns="http://www.w3.org/2000/svg">
<rect width="42" height="42" rx="10" fill="#A448C4" fill-opacity="0.17"/>
<path d="M31 31L27.1111 27.1111M26.5556 18.7778C26.5556 19.7992 26.3544 20.8106 25.9635 21.7542C25.5726 22.6978 24.9997 23.5553 24.2775 24.2775C23.5553 24.9997 22.6978 25.5726 21.7542 25.9635C20.8106 26.3544 19.7992 26.5556 18.7778 26.5556C17.7564 26.5556 16.745 26.3544 15.8014 25.9635C14.8577 25.5726 14.0003 24.9997 13.2781 24.2775C12.5558 23.5553 11.9829 22.6978 11.592 21.7542C11.2012 20.8106 11 19.7992 11 18.7778C11 16.715 11.8194 14.7367 13.2781 13.2781C14.7367 11.8194 16.715 11 18.7778 11C20.8406 11 22.8189 11.8194 24.2775 13.2781C25.7361 14.7367 26.5556 16.715 26.5556 18.7778Z" stroke="#863ED5" stroke-width="2" stroke-linecap="round"/>
</svg>
