<svg width="129" height="131" viewBox="0 0 129 131" fill="none" xmlns="http://www.w3.org/2000/svg">
<path d="M64.5 7C96.3851 7 122 33.3214 122 65.5C122 97.6786 96.3851 124 64.5 124C32.6149 124 7 97.6786 7 65.5C7 33.3214 32.6149 7 64.5 7Z" fill="white" stroke="#863ED5" stroke-width="14"/>
<path d="M73.543 52.2109C72.0366 51.9632 70.9488 50.6534 71.0019 49.148C71.1541 44.8411 71.3202 40.5719 71.4286 37.8441C71.4939 36.2032 72.8814 34.927 74.5446 35.0032C78.793 35.198 86.5493 35.6814 91.0484 36.7394C93.1118 37.2247 94.2731 39.0181 94.4276 41.1047C94.6873 44.6087 95 51.6094 95 65C95 78.3907 94.6873 85.3913 94.4276 88.8953C94.2731 90.9818 93.1118 92.7754 91.0484 93.2606C86.5493 94.3187 78.793 94.802 74.5446 94.9967C72.8814 95.0731 71.4939 93.7969 71.4286 92.1559C71.3202 89.4281 71.1541 85.159 71.0019 80.852C70.9488 79.3466 72.0366 78.0368 73.543 77.7892L75.7035 77.434C77.172 77.1926 78.2484 75.9394 78.2484 74.471V55.529C78.2484 54.0607 77.172 52.8074 75.7035 52.5661L73.543 52.2109Z" fill="#863ED5"/>
<path d="M52.3313 71.4744C52.3862 73.6635 52.4667 75.4366 52.5566 76.8646C52.7351 79.7034 55.4169 80.9336 57.6704 79.2049C59.1801 78.0466 61.0941 76.4934 63.4484 74.4349C66.9186 71.4004 68.9541 69.0979 70.1316 67.5274C71.2893 65.9833 71.2895 64.0153 70.1319 62.4712C68.9544 60.9004 66.9189 58.5979 63.4484 55.5639C61.0947 53.5062 59.181 51.9532 57.6714 50.7951C55.4175 49.066 52.7349 50.2965 52.5564 53.1358C52.4667 54.5635 52.3862 56.3364 52.3313 58.5249C51.3309 58.5171 50.2305 58.5127 49.0211 58.5127C44.3178 58.5127 41.2612 58.5793 39.3364 58.6507C37.4259 58.7215 35.6791 59.6427 35.3025 61.5216C35.126 62.4019 35 63.5412 35 64.9996C35 66.4581 35.126 67.5973 35.3025 68.4777C35.6791 70.3566 37.4259 71.2777 39.3364 71.3485C41.2612 71.4199 44.3178 71.4865 49.0211 71.4865C50.2305 71.4865 51.3309 71.4822 52.3313 71.4744Z" fill="#592B9C"/>
</svg>
